<svg width="55" height="69" viewBox="0 0 55 69" fill="none" xmlns="http://www.w3.org/2000/svg">
<path fill-rule="evenodd" clip-rule="evenodd" d="M44.64 32.5C49.732 50.1 54.155 65.513 54.468 66.75C55.01 68.891 54.756 69 49.224 69H43.409L43.13 60.75C42.803 51.104 41.475 43.277 39.829 41.293C39.187 40.521 38.128 37.776 37.475 35.194C36.541 31.502 35.703 30.291 33.547 29.523C31.293 28.719 30.556 28.887 29.403 30.464C28.631 31.519 28 33.511 28 34.891C28 38.82 26.47 36.248 24.024 28.205C22.791 24.151 22.073 19.847 22.407 18.516C23.049 15.956 22.083 14.698 20.335 15.816C18.835 16.774 20.313 31.802 22.713 40C24.586 46.4 24.464 52.997 22.49 52C21.946 51.725 21.625 50.091 21.779 48.368C22.072 45.07 20.331 43.552 17.5 44.638C15.793 45.294 15.604 46.825 16.966 48.979C17.663 50.082 17.024 51.18 14.45 53.302C11.762 55.517 11 56.89 11 59.514C11 61.366 11.396 63.127 11.881 63.426C12.365 63.726 12.978 65.102 13.242 66.485C13.718 68.977 13.659 69 6.754 69C1.054 69 -0.111994 68.734 0.347006 67.539C1.14201 65.465 20 1.09003 20 0.447028C20 0.155028 23.461 0.0470279 27.691 0.208028L35.382 0.500028L44.64 32.5ZM41.455 61.75C41.864 63.103 41.709 64 41.067 64C40.48 64 39.994 63.662 39.986 63.25C39.979 62.838 39.693 61.375 39.35 60C38.572 56.875 40.455 58.441 41.455 61.75Z" fill="black"/>
</svg>
