<svg width="15" height="21" viewBox="0 0 15 21" fill="none" xmlns="http://www.w3.org/2000/svg">
<path d="M5.10417 2.83335C9.33042 2.83335 12.7708 6.27377 12.7708 10.5C12.7708 14.7263 9.33042 18.1667 5.10417 18.1667C4.77833 18.1667 4.4525 18.1475 4.13625 18.0996C5.96667 16.0296 7.02083 13.3271 7.02083 10.5C7.02083 7.67294 5.96667 4.97044 4.13625 2.90044C4.4525 2.85252 4.77833 2.83335 5.10417 2.83335ZM5.10417 0.916687C3.36 0.916687 1.72125 1.39585 0.3125 2.21044C3.17792 3.86835 5.10417 6.95419 5.10417 10.5C5.10417 14.0459 3.17792 17.1317 0.3125 18.7896C1.72125 19.6042 3.36 20.0834 5.10417 20.0834C10.3942 20.0834 14.6875 15.79 14.6875 10.5C14.6875 5.21002 10.3942 0.916687 5.10417 0.916687Z" fill="#959595"/>
</svg>
