<svg width="31" height="31" viewBox="0 0 31 31" fill="none" xmlns="http://www.w3.org/2000/svg">
<path d="M21.8587 18.4165C21.9753 17.454 22.0628 16.4915 22.0628 15.4998C22.0628 14.5082 21.9753 13.5457 21.8587 12.5832H26.7878C27.0212 13.5165 27.167 14.4936 27.167 15.4998C27.167 16.5061 27.0212 17.4832 26.7878 18.4165H21.8587ZM19.2774 26.5248C20.1524 24.9061 20.8232 23.1561 21.2899 21.3332H25.592C24.1791 23.7661 21.9376 25.609 19.2774 26.5248ZM18.9128 18.4165H12.0878C11.942 17.454 11.8545 16.4915 11.8545 15.4998C11.8545 14.5082 11.942 13.5311 12.0878 12.5832H18.9128C19.0441 13.5311 19.1462 14.5082 19.1462 15.4998C19.1462 16.4915 19.0441 17.454 18.9128 18.4165ZM15.5003 27.1082C14.2899 25.3582 13.3128 23.4186 12.7149 21.3332H18.2857C17.6878 23.4186 16.7107 25.3582 15.5003 27.1082ZM9.66699 9.6665H5.40866C6.80699 7.22703 9.0469 5.38117 11.7087 4.47484C10.8337 6.09359 10.1774 7.84359 9.66699 9.6665ZM5.40866 21.3332H9.66699C10.1774 23.1561 10.8337 24.9061 11.7087 26.5248C9.05249 25.6085 6.81573 23.7653 5.40866 21.3332ZM4.21283 18.4165C3.97949 17.4832 3.83366 16.5061 3.83366 15.4998C3.83366 14.4936 3.97949 13.5165 4.21283 12.5832H9.14199C9.02533 13.5457 8.93783 14.5082 8.93783 15.4998C8.93783 16.4915 9.02533 17.454 9.14199 18.4165H4.21283ZM15.5003 3.87692C16.7107 5.62692 17.6878 7.58109 18.2857 9.6665H12.7149C13.3128 7.58109 14.2899 5.62692 15.5003 3.87692ZM25.592 9.6665H21.2899C20.8335 7.8603 20.1576 6.11677 19.2774 4.47484C21.9607 5.39359 24.192 7.24567 25.592 9.6665ZM15.5003 0.916504C7.43574 0.916504 0.916992 7.479 0.916992 15.4998C0.916992 19.3676 2.45345 23.0769 5.18835 25.8118C6.54254 27.166 8.15019 28.2402 9.91953 28.9731C11.6889 29.706 13.5852 30.0832 15.5003 30.0832C19.3681 30.0832 23.0774 28.5467 25.8123 25.8118C28.5472 23.0769 30.0837 19.3676 30.0837 15.4998C30.0837 13.5847 29.7065 11.6884 28.9736 9.91904C28.2407 8.14971 27.1665 6.54205 25.8123 5.18786C24.4581 3.83368 22.8505 2.75948 21.0811 2.02659C19.3118 1.29371 17.4154 0.916504 15.5003 0.916504Z" fill="#F8C1C5"/>
</svg>
