<svg width="32" height="32" viewBox="0 0 32 32" fill="none" xmlns="http://www.w3.org/2000/svg">
<path d="M15.9992 10.7932C13.132 10.7932 10.7922 13.133 10.7922 16.0002C10.7922 18.8674 13.132 21.2072 15.9992 21.2072C18.8664 21.2072 21.2062 18.8674 21.2062 16.0002C21.2062 13.133 18.8664 10.7932 15.9992 10.7932ZM31.6164 16.0002C31.6164 13.8439 31.6359 11.7072 31.5148 9.55487C31.3937 7.05487 30.8234 4.83612 28.9953 3.008C27.1633 1.17597 24.9484 0.60956 22.4484 0.488467C20.2922 0.367373 18.1555 0.386904 16.0031 0.386904C13.8469 0.386904 11.7101 0.367373 9.5578 0.488467C7.0578 0.60956 4.83905 1.17987 3.01093 3.008C1.1789 4.84003 0.61249 7.05487 0.491396 9.55487C0.370302 11.7111 0.389834 13.8478 0.389834 16.0002C0.389834 18.1525 0.370302 20.2932 0.491396 22.4455C0.61249 24.9455 1.1828 27.1642 3.01093 28.9924C4.84296 30.8244 7.0578 31.3908 9.5578 31.5119C11.7141 31.633 13.8508 31.6135 16.0031 31.6135C18.1594 31.6135 20.2961 31.633 22.4484 31.5119C24.9484 31.3908 27.1672 30.8205 28.9953 28.9924C30.8273 27.1603 31.3937 24.9455 31.5148 22.4455C31.6398 20.2932 31.6164 18.1564 31.6164 16.0002ZM15.9992 24.0119C11.5656 24.0119 7.98749 20.4338 7.98749 16.0002C7.98749 11.5666 11.5656 7.98847 15.9992 7.98847C20.4328 7.98847 24.0109 11.5666 24.0109 16.0002C24.0109 20.4338 20.4328 24.0119 15.9992 24.0119ZM24.3391 9.53143C23.3039 9.53143 22.468 8.6955 22.468 7.66034C22.468 6.62518 23.3039 5.78925 24.3391 5.78925C25.3742 5.78925 26.2101 6.62518 26.2101 7.66034C26.2105 7.90614 26.1623 8.14959 26.0683 8.37674C25.9744 8.60389 25.8366 8.81028 25.6628 8.98409C25.489 9.1579 25.2826 9.29571 25.0555 9.38963C24.8283 9.48356 24.5849 9.53174 24.3391 9.53143Z" fill="#F8C1C5"/>
</svg>
