<svg width="29" height="29" viewBox="0 0 29 29" fill="none" xmlns="http://www.w3.org/2000/svg">
<path d="M14.5 21.75C16.4228 21.75 18.2669 20.9862 19.6265 19.6265C20.9862 18.2669 21.75 16.4228 21.75 14.5C21.75 12.5772 20.9862 10.7331 19.6265 9.37348C18.2669 8.01384 16.4228 7.25 14.5 7.25C12.5772 7.25 10.7331 8.01384 9.37348 9.37348C8.01384 10.7331 7.25 12.5772 7.25 14.5C7.25 16.4228 8.01384 18.2669 9.37348 19.6265C10.7331 20.9862 12.5772 21.75 14.5 21.75ZM14.5 0C14.7404 0 14.9709 0.0954797 15.1408 0.265435C15.3108 0.435389 15.4062 0.665898 15.4062 0.90625V4.53125C15.4062 4.7716 15.3108 5.00211 15.1408 5.17207C14.9709 5.34202 14.7404 5.4375 14.5 5.4375C14.2596 5.4375 14.0291 5.34202 13.8592 5.17207C13.6892 5.00211 13.5938 4.7716 13.5938 4.53125V0.90625C13.5938 0.665898 13.6892 0.435389 13.8592 0.265435C14.0291 0.0954797 14.2596 0 14.5 0V0ZM14.5 23.5625C14.7404 23.5625 14.9709 23.658 15.1408 23.8279C15.3108 23.9979 15.4062 24.2284 15.4062 24.4688V28.0938C15.4062 28.3341 15.3108 28.5646 15.1408 28.7346C14.9709 28.9045 14.7404 29 14.5 29C14.2596 29 14.0291 28.9045 13.8592 28.7346C13.6892 28.5646 13.5938 28.3341 13.5938 28.0938V24.4688C13.5938 24.2284 13.6892 23.9979 13.8592 23.8279C14.0291 23.658 14.2596 23.5625 14.5 23.5625ZM29 14.5C29 14.7404 28.9045 14.9709 28.7346 15.1408C28.5646 15.3108 28.3341 15.4062 28.0938 15.4062H24.4688C24.2284 15.4062 23.9979 15.3108 23.8279 15.1408C23.658 14.9709 23.5625 14.7404 23.5625 14.5C23.5625 14.2596 23.658 14.0291 23.8279 13.8592C23.9979 13.6892 24.2284 13.5938 24.4688 13.5938H28.0938C28.3341 13.5938 28.5646 13.6892 28.7346 13.8592C28.9045 14.0291 29 14.2596 29 14.5ZM5.4375 14.5C5.4375 14.7404 5.34202 14.9709 5.17207 15.1408C5.00211 15.3108 4.7716 15.4062 4.53125 15.4062H0.90625C0.665898 15.4062 0.435389 15.3108 0.265435 15.1408C0.0954797 14.9709 0 14.7404 0 14.5C0 14.2596 0.0954797 14.0291 0.265435 13.8592C0.435389 13.6892 0.665898 13.5938 0.90625 13.5938H4.53125C4.7716 13.5938 5.00211 13.6892 5.17207 13.8592C5.34202 14.0291 5.4375 14.2596 5.4375 14.5ZM24.7533 4.24669C24.9232 4.41663 25.0187 4.6471 25.0187 4.88741C25.0187 5.12771 24.9232 5.35818 24.7533 5.52812L22.1904 8.09281C22.1062 8.17695 22.0062 8.24367 21.8961 8.28916C21.7861 8.33465 21.6682 8.35803 21.5491 8.35794C21.3086 8.35777 21.078 8.26208 20.9081 8.09191C20.824 8.00765 20.7572 7.90764 20.7117 7.7976C20.6663 7.68755 20.6429 7.56962 20.643 7.45055C20.6431 7.21006 20.7388 6.97949 20.909 6.80956L23.4719 4.24669C23.6418 4.07679 23.8723 3.98135 24.1126 3.98135C24.3529 3.98135 24.5834 4.07679 24.7533 4.24669ZM8.091 20.909C8.2609 21.0789 8.35634 21.3094 8.35634 21.5497C8.35634 21.79 8.2609 22.0205 8.091 22.1904L5.52812 24.7533C5.3572 24.9184 5.12828 25.0097 4.89067 25.0077C4.65305 25.0056 4.42575 24.9103 4.25773 24.7423C4.0897 24.5742 3.99439 24.3469 3.99233 24.1093C3.99026 23.8717 4.08161 23.6428 4.24669 23.4719L6.80956 20.909C6.97951 20.7391 7.20998 20.6437 7.45028 20.6437C7.69059 20.6437 7.92105 20.7391 8.091 20.909ZM24.7533 24.7533C24.5834 24.9232 24.3529 25.0187 24.1126 25.0187C23.8723 25.0187 23.6418 24.9232 23.4719 24.7533L20.909 22.1904C20.7439 22.0195 20.6526 21.7906 20.6546 21.553C20.6567 21.3154 20.752 21.0881 20.92 20.92C21.0881 20.752 21.3154 20.6567 21.553 20.6546C21.7906 20.6526 22.0195 20.7439 22.1904 20.909L24.7533 23.4719C24.9232 23.6418 25.0187 23.8723 25.0187 24.1126C25.0187 24.3529 24.9232 24.5834 24.7533 24.7533ZM8.091 8.09281C7.92105 8.26271 7.69059 8.35815 7.45028 8.35815C7.20998 8.35815 6.97951 8.26271 6.80956 8.09281L4.24669 5.52812C4.16013 5.44453 4.09109 5.34453 4.0436 5.23396C3.9961 5.12339 3.9711 5.00448 3.97005 4.88414C3.96901 4.76381 3.99194 4.64448 4.03751 4.5331C4.08307 4.42173 4.15036 4.32054 4.23545 4.23545C4.32054 4.15036 4.42173 4.08307 4.5331 4.03751C4.64448 3.99194 4.76381 3.96901 4.88414 3.97005C5.00448 3.9711 5.12339 3.9961 5.23396 4.0436C5.34453 4.09109 5.44453 4.16013 5.52812 4.24669L8.091 6.80956C8.1754 6.89375 8.24235 6.99375 8.28804 7.10385C8.33373 7.21395 8.35724 7.33198 8.35724 7.45119C8.35724 7.57039 8.33373 7.68842 8.28804 7.79852C8.24235 7.90862 8.1754 8.00863 8.091 8.09281Z" fill="#959595"/>
</svg>
