<svg width="36" height="36" viewBox="0 0 36 36" fill="none" xmlns="http://www.w3.org/2000/svg">
<path d="M18 0.5C8.33594 0.5 0.5 8.33594 0.5 18C0.5 27.6641 8.33594 35.5 18 35.5C27.6641 35.5 35.5 27.6641 35.5 18C35.5 8.33594 27.6641 0.5 18 0.5ZM26.4102 13.6914C26.4219 13.875 26.4219 14.0664 26.4219 14.2539C26.4219 19.9883 22.0547 26.5938 14.0742 26.5938C11.6133 26.5938 9.33203 25.8789 7.41016 24.6484C7.76172 24.6875 8.09766 24.7031 8.45703 24.7031C10.4883 24.7031 12.3555 24.0156 13.8438 22.8516C11.9375 22.8125 10.3359 21.5625 9.78906 19.8438C10.457 19.9414 11.0586 19.9414 11.7461 19.7656C10.7646 19.5662 9.88232 19.0331 9.24928 18.257C8.61624 17.4808 8.27143 16.5094 8.27344 15.5078V15.4531C8.84766 15.7773 9.52344 15.9766 10.2305 16.0039C9.6361 15.6078 9.14866 15.0711 8.81137 14.4415C8.47408 13.8119 8.29736 13.1088 8.29688 12.3945C8.29688 11.5859 8.50781 10.8477 8.88672 10.207C9.97618 11.5482 11.3357 12.6451 12.8768 13.4264C14.418 14.2078 16.1063 14.6561 17.832 14.7422C17.2188 11.793 19.4219 9.40625 22.0703 9.40625C23.3203 9.40625 24.4453 9.92969 25.2383 10.7734C26.2188 10.5898 27.1562 10.2227 27.9922 9.73047C27.668 10.7344 26.9883 11.582 26.0859 12.1172C26.9609 12.0234 27.8047 11.7812 28.5859 11.4414C27.9961 12.3086 27.2578 13.0781 26.4102 13.6914Z" fill="#F8C1C5"/>
</svg>
