<svg width="187" height="154" viewBox="0 0 187 154" fill="none" xmlns="http://www.w3.org/2000/svg">
<path d="M172.736 90.4255C165.522 90.4255 159.472 84.3548 159.472 76.8833C159.472 69.6452 165.522 63.341 172.736 63.341C180.182 63.341 186 69.4117 186 76.8833C186 84.5883 179.95 90.4255 172.736 90.4255ZM27.5283 77.1167C27.5283 69.6452 21.7107 63.5745 14.2642 63.5745C7.05034 63.5745 1 69.8786 1 77.1167C1 84.5883 7.05034 90.659 14.2642 90.659C21.7107 90.4255 27.761 84.5883 27.5283 77.1167ZM45.9119 125.916C38.6981 125.916 32.6478 131.986 32.6478 139.458C32.6478 146.696 38.6981 153 45.9119 153C53.3585 153 59.1761 146.929 59.1761 139.458C59.4088 131.753 53.3585 125.916 45.9119 125.916ZM127.591 139.458C127.591 146.929 133.409 153 140.855 153C148.069 153 154.119 146.696 154.119 139.458C154.119 131.986 148.069 125.916 140.855 125.916C133.409 125.916 127.358 131.753 127.591 139.458ZM59.1761 14.5422C59.1761 7.07067 53.3585 1 45.9119 1C38.6981 1 32.6478 7.30415 32.6478 14.5422C32.6478 22.0138 38.6981 28.0845 45.9119 28.0845C53.3585 28.0845 59.4088 22.2473 59.1761 14.5422ZM140.855 28.0845C148.069 28.0845 154.119 22.0138 154.119 14.5422C154.119 7.30415 148.069 1 140.855 1C133.409 1 127.591 7.07067 127.591 14.5422C127.358 22.2473 133.409 28.0845 140.855 28.0845ZM153.887 77.1167C153.887 77.8172 153.189 78.7512 152.258 78.7512H126.195C125.497 90.192 119.214 100.465 109.673 105.836L127.358 123.581C128.057 124.281 128.057 125.215 127.358 125.682C126.66 126.382 125.73 126.382 125.264 125.682L106.648 107.003C102.459 108.871 98.0378 110.038 93.151 110.038C88.4969 110.038 84.0755 109.104 79.8868 107.237L61.5031 125.682C60.805 126.382 59.8742 126.382 59.4088 125.682C58.7107 124.982 58.7107 124.048 59.4088 123.581L76.8616 106.069C67.3208 100.699 60.5723 90.659 60.1069 78.9846H34.5094C33.8113 78.9846 32.8805 78.2842 32.8805 77.3502C32.8805 76.6498 33.5786 75.7158 34.5094 75.7158H60.3396C61.0377 64.0415 67.3208 53.7681 77.0944 48.6313L59.6415 31.1198C58.9434 30.4194 58.9434 29.4854 59.6415 29.0184C60.3396 28.318 61.2705 28.318 61.7359 29.0184L80.1195 47.4639C84.3082 45.596 88.7296 44.6621 93.3837 44.6621C98.2705 44.6621 102.692 45.596 106.881 47.6974L125.497 28.7849C126.195 28.0845 127.126 28.0845 127.591 28.7849C128.289 29.4854 128.289 30.4194 127.591 30.8863L109.906 48.6313C119.447 54.0015 125.962 64.0415 126.428 75.7158H152.723C153.421 75.7158 153.887 76.1828 153.887 77.1167ZM123.403 77.1167C123.403 60.5392 109.906 47.2304 93.6163 47.2304C77.0943 47.2304 63.8302 60.7727 63.8302 77.1167C63.8302 93.6943 77.327 107.003 93.6163 107.003C109.906 107.003 123.403 93.4608 123.403 77.1167ZM93.6163 76.6498C87.3333 76.6498 82.2138 71.2796 82.2138 65.2089C82.2138 58.9048 87.566 53.768 93.6163 53.768C100.132 53.768 105.019 59.1382 105.019 65.2089C105.019 71.5131 99.8993 76.6498 93.6163 76.6498ZM93.6163 56.8034C89.4276 56.8034 85.7044 60.7727 85.7044 64.9754C85.7044 69.4117 89.1949 73.1475 93.6163 73.1475C98.0377 73.1475 101.528 69.6452 101.528 64.9754C101.528 60.3057 98.2704 56.5699 93.6163 56.8034ZM111.535 92.7604H75.6981C75.2327 83.8879 77.5597 77.3502 81.0503 75.7158C85.7044 73.8479 91.0566 78.5177 91.2893 79.2181C92.6855 80.3856 93.151 80.3856 93.3837 80.3856C93.8491 80.3856 94.5472 79.9186 95.478 79.2181C96.1761 78.5177 101.296 73.8479 105.95 75.7158C109.673 77.3502 112 84.1214 111.535 92.7604ZM79.1887 89.725H108.277C107.811 81.7865 106.182 79.4516 104.786 79.2181C102.692 78.2842 99.2013 80.8525 98.0378 82.02C96.6415 83.4209 95.2453 84.1213 93.849 84.1213C92.4528 84.1213 91.0566 83.4209 89.6604 82.02C88.4969 81.086 85.0063 78.2842 82.912 79.2181C81.0503 79.4516 79.1887 81.553 79.1887 89.725Z" fill="white" stroke="white" stroke-width="0.75" stroke-miterlimit="10"/>
</svg>
