<svg width="212" height="229" viewBox="0 0 212 229" fill="none" xmlns="http://www.w3.org/2000/svg">
    <path fill-rule="evenodd" clip-rule="evenodd" d="M61.3527 0.92587C55.6064 1.88017 39.4698 8.72557 36.9642 11.2713C36.09 12.1599 29.8435 21.5356 23.084 32.1073L10.7917 51.3295L5.35458 75.1327C0.11931 98.0503 -0.079683 99.4233 0.0149769 111.99C0.0700342 119.169 0.587759 127.231 1.16731 129.907C1.78163 132.746 7.46899 144.654 14.8322 158.521C28.5211 184.299 29.6367 187.737 24.669 188.828C23.1419 189.165 20.8595 190.542 19.598 191.89C17.3387 194.303 17.3078 194.6 17.6092 210.891C17.7782 219.994 18.1298 227.787 18.3906 228.211C19.1285 229.406 88.0631 229.177 88.804 227.976C89.5342 226.793 89.4309 194.768 88.691 192.837C88.4118 192.11 86.6886 190.71 84.8602 189.724C81.9489 188.154 81.5365 187.466 81.5365 184.171C81.5365 181.331 82.2812 179.56 84.5733 176.947C89.9148 170.857 91.5385 165.829 91.5008 155.499C91.4699 147.18 90.618 142.676 87.7608 135.745C87.2508 134.507 89.8965 135.891 95.6205 139.854C100.367 143.141 104.82 145.83 105.516 145.83C106.214 145.83 110.51 143.179 115.065 139.939C120.26 136.242 123.088 134.711 122.654 135.83C118.469 146.585 118.122 163.351 121.932 170.7C123.096 172.945 125.267 176.208 126.757 177.951C128.315 179.775 129.549 182.442 129.662 184.231C129.825 186.806 129.358 187.601 126.957 188.844C121.42 191.71 121.066 193.157 121.357 211.684L121.622 228.497L156.813 228.751C184.325 228.949 192.174 228.739 192.779 227.784C194.094 225.71 193.714 195.941 192.338 193.206C191.596 191.732 189.529 190.235 187.04 189.369C183.576 188.163 182.958 187.545 182.958 185.292C182.958 183.833 184.446 179.903 186.265 176.561C195.155 160.23 198.893 153.197 203.855 143.456C209.178 133.011 209.271 132.681 210.626 119.662L212 106.46L206.238 79.8162C203.069 65.1615 199.733 51.7307 198.822 49.9691C197.912 48.2075 194.476 42.6238 191.185 37.5613C187.895 32.4979 182.803 24.6286 179.87 20.0727C174.917 12.3823 170.448 7.56823 168.259 7.56823C167.756 7.56823 164.445 6.29487 160.901 4.73725C151.594 0.649348 143.131 -0.629812 134.746 0.785678C126.012 2.26015 115.799 7.20373 110.004 12.7632L105.404 17.174L100.182 12.3968C94.0142 6.75414 85.2204 2.33749 77.2536 0.881397C70.7703 -0.303979 68.7178 -0.298181 61.3527 0.92587ZM76.7281 7.5721C85.0282 9.14809 91.8022 13.1606 98.3328 20.3695C101.579 23.9537 104.961 26.891 105.847 26.8959C106.733 26.9017 108.373 25.4243 109.49 23.6153C116.788 11.7963 134.258 4.54292 148.417 7.45415C164.985 10.8594 177.362 23.6366 179.906 39.9582C180.931 46.5329 179.937 55.6959 177.553 61.6604L175.992 65.5666L173.438 63.774C166.651 59.0112 158.218 58.756 152.475 63.1398C146.059 68.0389 145.82 68.9042 145.287 89.1735L144.804 107.543L137.077 114.274C127.707 122.435 106.81 138.095 105.287 138.095C103.725 138.095 83.0471 122.43 73.329 113.883L65.1294 106.672L65.1226 89.3534C65.1159 72.6566 65.0299 71.887 62.7146 67.9335C60.4959 64.1424 54.1421 59.7789 50.8425 59.7789C49.4487 59.7789 46.7615 50.8925 46.7692 46.3086C46.7866 34.8647 55.1312 25.4862 67.0477 23.5186C72.6848 22.5885 74.1839 20.6509 71.4146 17.8789C68.0725 14.5326 54.2812 19.3417 48.3398 25.9251C40.8965 34.1725 38.5232 43.8218 41.3224 54.4612C42.2922 58.1478 42.4921 60.3842 41.872 60.5969C41.3359 60.7806 39.6041 62.0191 38.0248 63.3496L35.1522 65.7687L33.7062 62.3044C24.2498 39.6498 36.2175 14.3721 59.3435 8.15125C65.7418 6.43023 69.9705 6.28907 76.7281 7.5721ZM24.6401 54.4612C25.21 57.6518 26.9438 63.2993 28.4921 67.012L31.3088 73.7617V100.611V127.459H34.6895H38.0702V100.291V73.1217L41.477 69.7115C44.6017 66.5837 45.245 66.342 49.2439 66.7935C54.4502 67.3804 57.0389 69.4833 58.3438 74.1852C58.8751 76.0996 59.3117 87.3162 59.3146 99.11L59.3204 120.554L64.7073 122.121C75.3363 125.214 82.543 135.108 84.6351 149.48C86.2376 160.482 84.7201 166.811 79.0183 172.913C75.0416 177.169 74.775 177.796 74.775 182.913V188.372H54.4908H34.2065V184.214C34.2065 181.928 33.8356 179.644 33.3836 179.138C32.9306 178.634 29.8319 172.999 26.4985 166.617C23.1642 160.236 17.6343 149.673 14.2101 143.144C8.00213 131.308 7.9809 131.238 6.731 119.219C5.33429 105.797 4.90352 109.075 12.8772 72.4536C15.9594 58.3006 17.3967 53.5978 19.9235 49.4074C22.6088 44.955 23.1371 44.4909 23.3516 46.4014C23.4907 47.6438 24.0702 51.2705 24.6401 54.4612ZM192.565 52.5274C193.607 54.6545 196.916 67.8271 199.918 81.8012L205.378 107.207L203.996 119.509L202.615 131.81L189.888 155.782C179.05 176.198 177.162 180.391 177.162 184.063V188.372H156.395H135.628V182.76C135.628 177.62 135.345 176.874 132.259 173.881C127.063 168.839 125.668 164.051 126.144 152.884C126.494 144.672 126.962 142.553 129.661 136.942C133.381 129.214 138.858 124.142 145.672 122.117C148.322 121.33 150.833 120.142 151.254 119.48C151.675 118.817 152.025 108.397 152.034 96.3235C152.044 81.3942 152.417 73.5616 153.203 71.8377C155.433 66.9366 163.754 64.8975 168.356 68.1239C172.975 71.362 173.311 73.9967 172.644 101.761L172.027 127.459H175.561H179.094V100.504V73.549L181.619 68.0282C184.885 60.887 186.791 53.6316 186.831 48.1766L186.864 43.8257L188.768 46.2428C189.815 47.5723 191.524 50.4003 192.565 52.5274ZM82.882 196.67C83.2046 197.511 83.4683 203.602 83.4683 210.206V222.212L58.5959 222.34C44.9156 222.41 31.5502 222.519 28.894 222.582L24.0644 222.696L23.793 210.178C23.6432 203.293 23.7379 197.092 24.0035 196.4C24.3861 195.404 30.5331 195.14 53.3916 195.14C78.857 195.14 82.3652 195.322 82.882 196.67ZM186.605 209.179L186.872 222.734L176.463 222.507C170.738 222.381 157.469 222.264 146.977 222.246L127.9 222.212V208.662V195.112L157.119 195.367L186.338 195.623L186.605 209.179ZM33.4907 198.511C23.6268 202.803 27.2162 218.345 38.0702 218.345C48.901 218.345 52.386 203.324 42.6312 198.69C38.5589 196.757 37.5689 196.737 33.4907 198.511ZM168.783 198.484C164.893 200.178 162.48 203.841 162.48 208.053C162.48 212.372 164.021 215.092 167.484 216.885C172.196 219.324 175.977 218.758 179.674 215.057C185.26 209.465 183.767 201.427 176.584 198.422C172.708 196.801 172.648 196.801 168.783 198.484ZM40.4058 205.114C42.4574 206.616 42.1425 209.483 39.7605 210.985C36.1509 213.26 32.293 207.634 35.7346 205.114C36.6908 204.414 37.7418 203.842 38.0702 203.842C38.3986 203.842 39.4496 204.414 40.4058 205.114ZM175.186 205.239C175.823 206.008 176.202 207.639 176.029 208.865C175.622 211.739 171.531 212.499 169.731 210.034C168.109 207.814 168.143 207.207 169.986 205.361C171.879 203.468 173.682 203.425 175.186 205.239Z" fill="#e5e5e5"/>
    </svg>
    