<svg width="139" height="137" viewBox="0 0 139 137" fill="none" xmlns="http://www.w3.org/2000/svg">
<path d="M65.5415 0H72.7607V7.2192H65.5415V0Z" fill="white"/>
<path d="M65.5415 129.526H72.7607V136.745H65.5415V129.526Z" fill="white"/>
<path d="M18.1193 108.717H25.3385V115.936H18.1193V108.717Z" fill="white"/>
<path d="M110.981 108.717H118.201V115.936H110.981V108.717Z" fill="white"/>
<path d="M18.1193 19.8188H25.3385V27.0381H18.1193V19.8188Z" fill="white"/>
<path d="M110.981 19.8188H118.201V27.0381H110.981V19.8188Z" fill="white"/>
<path d="M0 64.1257H7.2192V71.3449H0V64.1257Z" fill="white"/>
<path d="M131.224 64.1257H138.443V71.3449H131.224V64.1257Z" fill="white"/>
<path d="M13.1646 31.9923C7.78512 40.2027 4.38823 49.2624 3.11345 59.0299L2.97324 59.8791H7.22023L7.36143 59.1711C8.77741 49.6867 12.3165 40.6272 17.6949 32.6997L18.5441 31.5671H13.5891L13.1646 31.9923Z" fill="white"/>
<path d="M7.07782 76.2998L6.93662 75.5918H2.83093L2.97213 76.441C4.24593 86.4921 7.50249 95.6929 12.8809 104.186L13.1643 104.47H18.1194L17.2702 103.337C11.8907 95.2679 8.35177 85.9258 7.078 76.2996L7.07782 76.2998Z" fill="white"/>
<path d="M131.083 59.3129L131.224 60.0209H135.471L135.33 59.1717C133.914 49.4039 130.517 40.3445 125.278 32.1341L124.995 31.8507H120.04L120.889 32.9833C126.129 40.7692 129.668 49.8289 131.082 59.3131L131.083 59.3129Z" fill="white"/>
<path d="M131.366 75.5918L131.225 76.2998C129.951 85.9252 126.412 95.4106 121.033 103.337L120.183 104.611H125.138L125.422 104.328C130.801 95.9761 134.198 86.633 135.331 76.5824L135.472 75.7332L131.366 75.5918Z" fill="white"/>
<path d="M103.338 15.9961L103.479 16.1373H110.557L108.716 14.7213C99.7987 7.92674 89.0395 3.5387 77.8565 2.12362L77.0073 1.98242V6.22941L77.7153 6.36963C86.916 7.64441 95.5513 10.7577 103.337 15.9961L103.338 15.9961Z" fill="white"/>
<path d="M29.4443 14.723L27.6037 16.139H34.6816L34.8228 15.9978C42.7508 10.7584 51.3859 7.64515 60.7279 6.37037L61.4359 6.22917V1.98218L60.5867 2.12338C49.2618 3.53936 38.5039 7.92751 29.444 14.7231L29.4443 14.723Z" fill="white"/>
<path d="M104.045 120.466C96.1184 125.703 87.0587 129.242 77.5741 130.517L76.8661 130.658V134.905L77.7153 134.764C89.1812 133.207 100.081 128.818 109.283 121.741L111.123 120.325L104.045 120.466Z" fill="white"/>
<path d="M34.2567 120.466L33.9733 120.325H27.0367L28.8773 121.741C38.0781 128.818 49.1196 133.207 60.5863 134.764L61.4355 134.905V130.658L60.7275 130.376C51.2431 129.101 42.0423 125.562 34.2561 120.466L34.2567 120.466Z" fill="white"/>
<path d="M89.8893 101.781H47.8466C46.8552 101.781 46.1482 102.63 46.1482 103.479C46.1482 104.47 46.9974 105.177 47.8466 105.177H89.8893C90.8807 105.177 91.5877 104.328 91.5877 103.479C91.7289 102.63 90.8797 101.781 89.8893 101.781Z" fill="white"/>
<path d="M42.1838 49.1207C44.7314 49.1207 46.8553 46.9978 46.8553 44.4493C46.8553 44.1659 46.8553 43.7413 46.7141 43.4579H67.382V95.8344L55.0657 95.8354C54.0743 95.8354 53.3673 96.6846 53.3673 97.5338C53.3673 98.5251 54.2165 99.2322 55.0657 99.2322H83.0942C84.0856 99.2322 84.7926 98.383 84.7926 97.5338C84.7926 96.5424 83.9434 95.8354 83.0942 95.8354H70.9202V43.4589H91.5882C91.5882 43.7423 91.447 44.1669 91.447 44.4503C91.447 46.9978 93.57 49.1217 96.1184 49.1217C98.6659 49.1217 100.79 46.9988 100.79 44.4503C100.79 42.0439 98.8081 40.0623 96.6851 39.9199H96.4017H70.9213V31.9929C70.9213 31.0016 70.0721 30.2946 69.2229 30.2946C68.2315 30.2946 67.5245 31.1438 67.5245 31.9929L67.5235 40.0612H42.1847H41.9013C39.4949 40.2024 37.7966 42.1842 37.7966 44.5916C37.5132 47.1391 39.6371 49.121 42.1846 49.121L42.1838 49.1207Z" fill="white"/>
<path d="M53.5091 74.0348V73.8936V73.47L43.8836 52.661C43.6002 51.952 42.8922 51.3862 42.3264 51.3862C41.6184 51.3862 41.0526 51.6696 40.7692 52.3776L30.8604 73.1866V73.7515C30.8604 78.7065 35.8155 82.8112 41.902 83.2358H42.0432H42.4678H42.609C48.5544 83.0946 53.5092 78.9899 53.5092 74.0351L53.5091 74.0348ZM42.1842 57.3315L48.8374 72.1953H34.965L42.1842 57.3315Z" fill="white"/>
<path d="M107.443 74.035V73.4702L97.6749 52.6612C97.3915 51.9532 96.6835 51.6698 96.1177 51.6698C95.5519 51.6698 94.8439 52.0944 94.5605 52.6612L84.7928 73.4702V73.8938L84.7937 74.035C84.7937 78.9901 89.7488 83.0947 95.8353 83.5194H95.9765H96.4011H96.5423C102.488 83.0948 107.442 78.9901 107.442 74.035H107.443ZM95.8354 57.3317L102.772 72.1955H88.8996L95.8354 57.3317Z" fill="white"/>
</svg>
