<?xml version="1.0" encoding="iso-8859-1"?>
<!-- Generator: Adobe Illustrator 19.0.0, SVG Export Plug-In . SVG Version: 6.00 Build 0)  -->
<svg version="1.1" id="Capa_1" xmlns="http://www.w3.org/2000/svg" xmlns:xlink="http://www.w3.org/1999/xlink" x="0px" y="0px"
	 viewBox="0 0 463 463" fill="white" style="enable-background:new 0 0 463 463;" xml:space="preserve">
<g>
	<path d="M455,63.5c0-17.369-14.131-31.5-31.5-31.5H415v-8.5c0-8.547-6.953-15.5-15.5-15.5H193.141c-4.31-4.899-10.619-8-17.641-8
		h-32c-7.023,0-13.332,3.101-17.641,8H103.5C94.953,8,88,14.953,88,23.5v17.734c-9.29,3.138-16,11.93-16,22.266V208H55.5
		c-8.547,0-15.5,6.953-15.5,15.5v32c0,8.547,6.953,15.5,15.5,15.5H72v24.5c0,12.958,10.542,23.5,23.5,23.5H224v9h-0.5
		c-5.827,0-10.908,3.235-13.555,8H93.832c-1.872-4.574-5.865-8.079-10.969-9.213l-56-12.444c-4.613-1.026-9.374,0.083-13.061,3.04
		C10.115,320.34,8,324.747,8,329.473v76.054c0,4.727,2.115,9.133,5.801,12.091c2.786,2.235,6.186,3.414,9.671,3.414
		c1.127,0,2.263-0.123,3.39-0.374l56-12.444c5.105-1.135,9.098-4.639,10.969-9.213h116.113c2.647,4.765,7.728,8,13.555,8h0.5v9
		h-32.5c-12.958,0-23.5,10.542-23.5,23.5v16c0,4.142,3.358,7.5,7.5,7.5h168c4.142,0,7.5-3.358,7.5-7.5v-16
		c0-12.958-10.542-23.5-23.5-23.5H295v-9h0.5c8.547,0,15.5-6.953,15.5-15.5V391h16.5c12.958,0,23.5-10.542,23.5-23.5
		S340.458,344,327.5,344H311v-0.5c0-8.547-6.953-15.5-15.5-15.5H295v-9h128.5c12.958,0,23.5-10.542,23.5-23.5v-67.054
		c4.971-5.571,8-12.91,8-20.946V63.5z M440,63.5v144c0,9.098-7.402,16.5-16.5,16.5h-160c-9.098,0-16.5-7.402-16.5-16.5v-144
		c0-9.098,7.402-16.5,16.5-16.5h160C432.598,47,440,54.402,440,63.5z M399.5,23c0.276,0,0.5,0.224,0.5,0.5V32H263.5
		c-8.036,0-15.375,3.029-20.946,8H199V23.5c0-0.168-0.009-0.333-0.013-0.5H399.5z M143.5,15h32c4.687,0,8.5,3.813,8.5,8.5V40h-49
		V23.5C135,18.813,138.813,15,143.5,15z M103.5,23h16.513c-0.004,0.167-0.013,0.332-0.013,0.5V40h-17V23.5
		C103,23.224,103.224,23,103.5,23z M55.5,256c-0.276,0-0.5-0.224-0.5-0.5v-32c0-0.276,0.224-0.5,0.5-0.5H72v33H55.5z M95,351h113v33
		H95V351z M80,393.083c0,0.232-0.165,0.438-0.392,0.488l-56,12.444c-0.07,0.015-0.233,0.053-0.421-0.098
		C23,405.767,23,405.599,23,405.527v-76.054c0-0.072,0-0.24,0.187-0.39c0.114-0.091,0.219-0.113,0.299-0.113
		c0.052,0,0.094,0.009,0.122,0.015l56,12.444c0.227,0.05,0.392,0.256,0.392,0.488V393.083z M336,439.5v8.5H183v-8.5
		c0-4.687,3.813-8.5,8.5-8.5h136C332.187,431,336,434.813,336,439.5z M280,416h-41v-9h41V416z M327.5,359c4.687,0,8.5,3.813,8.5,8.5
		s-3.813,8.5-8.5,8.5H311v-17H327.5z M296,343.5v48c0,0.276-0.224,0.5-0.5,0.5h-72c-0.276,0-0.5-0.224-0.5-0.5v-48
		c0-0.276,0.224-0.5,0.5-0.5h72C295.776,343,296,343.224,296,343.5z M280,328h-41v-9h41V328z M423.5,304h-328
		c-4.687,0-8.5-3.813-8.5-8.5v-232c0-4.687,3.813-8.5,8.5-8.5h137.675c-0.76,2.706-1.175,5.555-1.175,8.5v144
		c0,17.369,14.131,31.5,31.5,31.5h160c2.945,0,5.794-0.415,8.5-1.175V295.5C432,300.187,428.187,304,423.5,304z"/>
	<path d="M271.5,64c-4.142,0-7.5,3.358-7.5,7.5v128c0,4.142,3.358,7.5,7.5,7.5h144c4.142,0,7.5-3.358,7.5-7.5v-128
		c0-4.142-3.358-7.5-7.5-7.5H271.5z M400,135.5c0,31.154-25.346,56.5-56.5,56.5S287,166.654,287,135.5S312.346,79,343.5,79
		S400,104.346,400,135.5z M299.759,79c-8.761,6.798-15.915,15.573-20.759,25.665V79H299.759z M279,192v-25.665
		c4.844,10.092,11.998,18.867,20.759,25.665H279z M387.241,192c8.761-6.798,15.915-15.573,20.759-25.665V192H387.241z M408,79
		v25.665C403.156,94.573,396.002,85.798,387.241,79H408z"/>
	<path d="M343.5,175c21.78,0,39.5-17.72,39.5-39.5S365.28,96,343.5,96S304,113.72,304,135.5S321.72,175,343.5,175z M343.5,111
		c13.509,0,24.5,10.991,24.5,24.5S357.009,160,343.5,160S319,149.009,319,135.5S329.991,111,343.5,111z"/>
	<path d="M343.5,150c7.995,0,14.5-6.505,14.5-14.5s-6.505-14.5-14.5-14.5s-14.5,6.505-14.5,14.5S335.505,150,343.5,150z"/>
	<path d="M183.5,88h-48c-8.547,0-15.5,6.953-15.5,15.5v64c0,8.547,6.953,15.5,15.5,15.5h48c8.547,0,15.5-6.953,15.5-15.5v-64
		C199,94.953,192.047,88,183.5,88z M184,167.5c0,0.276-0.224,0.5-0.5,0.5h-48c-0.276,0-0.5-0.224-0.5-0.5v-64
		c0-0.276,0.224-0.5,0.5-0.5h48c0.276,0,0.5,0.224,0.5,0.5V167.5z"/>
	<path d="M159.5,200c-21.78,0-39.5,17.72-39.5,39.5s17.72,39.5,39.5,39.5s39.5-17.72,39.5-39.5S181.28,200,159.5,200z M159.5,264
		c-13.509,0-24.5-10.991-24.5-24.5s10.991-24.5,24.5-24.5s24.5,10.991,24.5,24.5S173.009,264,159.5,264z"/>
</g>
<g>
</g>
<g>
</g>
<g>
</g>
<g>
</g>
<g>
</g>
<g>
</g>
<g>
</g>
<g>
</g>
<g>
</g>
<g>
</g>
<g>
</g>
<g>
</g>
<g>
</g>
<g>
</g>
<g>
</g>
</svg>
