<svg width="121" height="115" viewBox="0 0 121 115" fill="none" xmlns="http://www.w3.org/2000/svg">
<path d="M55.0559 48.9341H65.259" stroke="white" stroke-width="2" stroke-miterlimit="10" stroke-linecap="round"/>
<path d="M96.7954 60.6214V75.8332V89.1899V103.845C96.7954 106.257 95.6823 108.668 94.0128 110.524C92.3432 112.193 89.9315 113.306 87.3344 113.306H83.2532H76.5748H73.0501H66.0007H22.9624C20.3653 113.306 17.9536 112.379 16.284 110.524C14.4289 108.668 13.5014 106.257 13.5014 103.845V58.3952C13.5014 57.6532 13.5014 57.0967 13.6869 56.3546" stroke="white" stroke-width="3" stroke-miterlimit="10" stroke-linecap="round"/>
<path d="M98.6508 94.013L110.338 99.7638C111.266 100.135 112.193 100.32 113.121 100.32C114.048 100.32 114.976 99.9493 115.718 99.5783C116.46 99.0218 117.202 98.4652 117.573 97.5377C117.944 96.7956 118.315 95.8681 118.315 94.755V67.2996C118.315 66.372 118.129 65.4445 117.573 64.5169C117.202 63.7749 116.46 63.0328 115.718 62.4763C114.976 61.9198 114.048 61.7343 113.121 61.7343C112.193 61.7343 111.266 61.9197 110.338 62.2908L98.6508 68.0416" stroke="white" stroke-width="4" stroke-miterlimit="10" stroke-linecap="round"/>
<path d="M29.8265 57.8386C45.2238 57.8386 57.653 45.4094 57.653 30.0121C57.653 14.6147 45.2238 2.18555 29.8265 2.18555C14.4292 2.18555 2 14.6147 2 30.0121C2.18551 45.4094 14.6147 57.8386 29.8265 57.8386Z" stroke="white" stroke-width="4" stroke-linecap="round" stroke-linejoin="round"/>
<path d="M29.8265 42.6266C36.8759 42.6266 42.6267 36.8758 42.6267 29.8264C42.6267 22.777 36.8759 17.0262 29.8265 17.0262C22.7771 17.0262 17.0263 22.777 17.0263 29.8264C17.0263 36.8758 22.7771 42.6266 29.8265 42.6266Z" stroke="white" stroke-width="2" stroke-linecap="round" stroke-linejoin="round"/>
<path d="M37.9889 11.6465C42.8122 13.8726 46.5224 17.7683 48.3775 22.7771C50.2326 27.7859 50.0471 33.1656 48.0065 37.9889" stroke="white" stroke-linecap="round" stroke-linejoin="round"/>
<path d="M21.6643 48.0066C16.841 45.7805 13.1308 41.8848 11.2757 36.876C9.42062 31.8672 9.60615 26.4874 11.6468 21.6642" stroke="white" stroke-linecap="round" stroke-linejoin="round"/>
<path d="M89.9317 57.653C105.329 57.653 117.758 45.2238 117.758 29.8265C117.758 14.4292 105.329 2 89.9317 2C74.5344 2 62.1052 14.4292 62.1052 29.8265C62.1052 45.2238 74.5344 57.653 89.9317 57.653Z" stroke="white" stroke-width="4" stroke-linecap="round" stroke-linejoin="round"/>
<path d="M89.9317 42.6266C96.9811 42.6266 102.732 36.8758 102.732 29.8264C102.732 22.777 96.9811 17.0262 89.9317 17.0262C82.8823 17.0262 77.1315 22.777 77.1315 29.8264C77.1315 36.8758 82.8823 42.6266 89.9317 42.6266Z" stroke="white" stroke-width="2" stroke-linecap="round" stroke-linejoin="round"/>
<path d="M80.4704 12.3885C85.1081 9.79134 90.4879 9.42032 95.6822 10.9044C100.691 12.3885 104.958 15.9132 107.555 20.5509" stroke="white" stroke-linecap="round" stroke-linejoin="round"/>
<path d="M99.3926 47.4503C94.7549 50.0474 89.3751 50.4184 84.1808 48.9344C79.172 47.4503 74.9053 43.9256 72.3081 39.2878" stroke="white" stroke-linecap="round" stroke-linejoin="round"/>
<path d="M55.0559 73.4214H65.259" stroke="white" stroke-width="2" stroke-miterlimit="10" stroke-linecap="round"/>
<path d="M42.6265 73.4214H49.8615" stroke="white" stroke-width="2" stroke-miterlimit="10" stroke-linecap="round"/>
<path d="M30.0122 73.4214H37.0615" stroke="white" stroke-width="2" stroke-miterlimit="10" stroke-linecap="round"/>
<path d="M22.9624 73.4214H26.487" stroke="white" stroke-width="2" stroke-miterlimit="10" stroke-linecap="round"/>
<path d="M25.3745 89.1898C26.8586 89.1898 28.1572 87.8912 28.1572 86.4072C28.1572 84.9231 26.8586 83.6245 25.3745 83.6245C23.8905 83.6245 22.5919 84.9231 22.5919 86.4072C22.5919 87.8912 23.8905 89.1898 25.3745 89.1898Z" stroke="white" stroke-width="2" stroke-miterlimit="10" stroke-linecap="round"/>
<path d="M34.2785 89.1898C35.7626 89.1898 37.0612 87.8912 37.0612 86.4072C37.0612 84.9231 35.7626 83.6245 34.2785 83.6245C32.7944 83.6245 31.4959 84.9231 31.4959 86.4072C31.4959 87.8912 32.7944 89.1898 34.2785 89.1898Z" stroke="white" stroke-width="2" stroke-miterlimit="10" stroke-linecap="round"/>
</svg>
