<svg width="258" height="310" viewBox="0 0 258 310" fill="none" xmlns="http://www.w3.org/2000/svg">
<path fill-rule="evenodd" clip-rule="evenodd" d="M204.404 0.574762C203.735 0.910484 201.987 2.10972 200.521 3.23966C196.026 6.70416 190.245 9.52125 185.868 10.3807C184.869 10.5768 175.549 10.8442 163.587 11.0201C138.336 11.391 135.338 11.633 129.474 13.7724C116.312 18.5753 101.752 30.7313 90.4492 46.3536L87.2164 50.8221L81.4365 50.974C74.8945 51.1455 73.5351 51.4822 72.1029 53.2851C71.6343 53.875 71.0904 54.8954 70.894 55.5529C70.6226 56.4623 70.5124 63.7941 70.4331 86.2148L70.3289 115.681L57.5613 115.816L44.7937 115.95L43.5058 117.517C29.6155 134.409 2.18574 168.858 0.862343 171.072C0.489629 171.696 0.388578 174.979 0.16243 193.855C-0.177078 222.176 0.0550814 298.212 0.495068 302.717C0.92389 307.11 1.2883 307.999 3.0013 308.837C4.29435 309.47 5.0352 309.516 17.5386 309.755C34.6886 310.082 223.401 310.082 240.551 309.755C253.055 309.516 253.795 309.47 255.088 308.837C258.119 307.355 258.008 310.02 257.997 238.69C257.992 205.798 257.883 177.221 257.755 175.186L257.523 171.486L254.205 167.117C249.054 160.335 243.133 152.749 232.516 139.334C218.033 121.033 214.717 117.036 213.528 116.445C212.611 115.988 210.352 115.916 194.098 115.82L175.706 115.712V108.669C175.706 104.795 175.791 95.1885 175.896 87.3213L176.086 73.0169L177.836 71.9347C178.799 71.3395 181.193 70.1561 183.157 69.3049C185.12 68.4537 189.265 66.6539 192.367 65.3054C202.093 61.0773 218.325 51.8328 232.184 42.6281C241.938 36.1497 242.671 35.3843 242.685 31.6616C242.697 28.51 241.379 26.6374 238.498 25.7113L236.918 25.2037L234.171 26.6719C232.66 27.4794 228.387 30.1057 224.676 32.5083C205.465 44.9468 196.921 49.5789 179.57 56.962C173.858 59.3927 167.572 63.2296 147.674 76.432C140.522 81.1774 134.251 85.1465 133.738 85.2532C133.07 85.3918 132.605 85.2807 132.098 84.8614C131.046 83.9926 129.621 81.5384 129.436 80.2797C129.276 79.194 129.321 79.1349 131.95 76.9522C135.283 74.1857 138.781 71.43 147.366 64.8083C159.833 55.1916 163.118 52.3137 163.867 50.3507C164.925 47.5779 163.554 44.2266 160.7 42.6043C159.84 42.1161 159.19 41.9971 157.93 42.0981C156.096 42.2446 155.935 42.3458 148.903 47.7728L144.857 50.8943H123.497C111.408 50.8943 102.136 50.7734 102.136 50.6161C102.136 50.1459 110.764 41.0279 113.91 38.1735C120.346 32.3333 126.286 28.66 133.758 25.8979L138.041 24.3149H158.835C185.251 24.3149 187.212 24.15 194.573 21.3076C203.378 17.908 212.347 10.6284 212.347 6.88198C212.347 4.45535 210.725 1.84709 208.503 0.703861C206.748 -0.199521 205.994 -0.223253 204.404 0.574762ZM126.325 65.219C121.026 69.9115 118.871 73.9164 118.541 79.6886C118.248 84.8099 119.333 88.5044 122.071 91.7126C125.253 95.4404 129.52 97.3939 134.503 97.4034C138.943 97.412 139.956 96.888 154.461 87.0805C159.702 83.5369 164.049 80.6379 164.122 80.6379C164.195 80.6379 164.255 94.4496 164.255 111.331V142.024H123.32H82.384V103.104V64.184L104.927 64.1947L127.47 64.2052L126.325 65.219ZM70.2178 135.221V141.865L66.3533 142.035C61.52 142.248 60.6215 142.689 59.3404 145.482C58.2031 147.961 58.903 150.802 61.2807 153.359L62.5532 154.727L126.644 154.583C171.052 154.484 191.21 154.334 192.283 154.097C196.683 153.121 198.015 147.145 194.724 143.147L193.955 142.213L187.908 141.983C184.582 141.856 180.54 141.742 178.926 141.73L175.992 141.707V135.221V128.734L191.164 128.669C199.509 128.634 206.838 128.598 207.452 128.59L208.568 128.576L223.596 147.719L238.624 166.863L225.844 167.056C208.045 167.326 57.0331 167.382 36.3976 167.127L19.4669 166.918L25.5107 159.296C28.8351 155.104 35.73 146.44 40.833 140.042L50.111 128.41L60.1646 128.492L70.2178 128.576V135.221ZM245.983 239.007V297.228H129.045H12.1065L12.0329 239.323C11.9925 207.475 12.0209 181.24 12.0956 181.022C12.2044 180.706 35.7569 180.642 129.108 180.706L245.983 180.785V239.007Z" fill="black"/>
</svg>
