<svg width="115" height="116" viewBox="0 0 115 116" fill="none" xmlns="http://www.w3.org/2000/svg">
<path d="M112.291 1C106.403 1 101.466 5.55241 100.896 11.4326L15.6235 39.5058H10.6857C9.92606 37.4193 7.83695 35.9018 5.36804 36.2812C2.70922 36.6606 1 38.9368 1 41.5923V74.218C1 76.8736 2.89914 79.1497 5.36804 79.5291C7.83695 79.7188 9.92606 78.391 10.6857 76.3045H15.6235L25.6891 79.5291L25.1193 81.0466C22.4605 88.8236 26.8285 97.3594 34.6151 100.015L47.1496 104.188C48.6689 104.757 50.1882 104.947 51.8975 104.947C55.3159 104.947 58.7344 103.809 61.5832 101.343C63.8622 99.4459 65.3815 96.98 66.1412 94.3245L66.521 93.1864C66.521 93.1864 66.521 93.1864 66.7109 93.1864L100.896 104.567C101.466 110.448 106.403 115 112.291 115C113.24 115 114 114.241 114 113.293V2.89684C114 1.75874 113.24 1 112.291 1ZM34.4252 84.2712L34.9949 82.7537L57.0252 89.9617L56.4554 91.4792C56.0756 92.807 55.126 93.7554 53.9865 94.3245C52.847 94.8935 51.5176 95.0832 50.1882 94.7038L37.6538 90.5308C36.3243 90.1514 35.3748 89.203 34.805 88.0649C34.0454 86.7371 34.0454 85.4093 34.4252 84.2712ZM17.3328 73.2696V42.5407L100.516 15.0366H100.706V100.584C100.706 100.584 100.706 100.584 100.516 100.584L17.3328 73.2696ZM4.03867 73.0799C4.03867 63.0266 4.03867 52.7837 4.03867 42.7304C4.03867 41.782 4.03864 41.0233 4.60839 40.2646C4.98822 39.5058 6.12774 39.1264 6.88741 39.6955C7.64707 40.2645 7.26724 41.4027 7.83699 42.1614C8.21682 42.7305 9.16635 42.7304 9.92602 42.7304H14.1042C14.1042 51.2662 14.1042 63.5957 14.1042 71.9417L4.03867 73.0799ZM62.7227 93.5657C61.5832 97.1697 58.7344 100.015 54.9361 101.153C52.6571 101.912 49.9983 101.722 47.7193 100.963L35.3748 96.98C29.2975 94.8935 25.879 88.4442 27.968 82.1847L28.5378 80.6672L31.5765 81.6156C31.5765 81.6156 31.5765 81.6156 31.5765 81.8053L31.1966 83.1331C30.6269 84.6506 30.4369 86.3577 30.8168 87.8752C31.5764 90.7204 33.6656 92.9967 36.3244 93.9451L48.8588 98.1181C49.6185 98.3078 50.5681 98.4975 51.5177 98.4975C53.4168 98.4975 55.316 97.7387 56.8353 96.6006C58.1647 95.6522 58.9243 94.1347 59.4941 92.6173L59.874 91.2895C59.874 91.2895 59.874 91.2895 60.0639 91.2895L63.1025 92.2379L62.7227 93.5657ZM110.771 111.206C106.973 110.448 104.124 107.223 104.124 103.05V12.5707C104.124 8.58737 106.973 5.17302 110.581 4.41429H110.771V111.206Z" fill="white" stroke="white" stroke-miterlimit="10"/>
</svg>
