<?xml version="1.0" standalone="no"?>
<!DOCTYPE svg PUBLIC "-//W3C//DTD SVG 20010904//EN"
 "http://www.w3.org/TR/2001/REC-SVG-20010904/DTD/svg10.dtd">
<svg version="1.0" xmlns="http://www.w3.org/2000/svg"
 width="1104.000000pt" height="1104.000000pt" viewBox="0 0 1104.000000 1104.000000"
 preserveAspectRatio="xMidYMid meet">
<metadata>
Created by potrace 1.14, written by Peter Selinger 2001-2017
</metadata>
<g transform="translate(0.000000,1104.000000) scale(0.100000,-0.100000)"
fill="#000000" stroke="none">
<path d="M4638 11015 c-2 -1 -48 -5 -103 -8 -95 -6 -130 -10 -184 -21 -30 -7
-27 -1 -45 -76 -17 -67 -19 -75 -29 -100 -3 -8 -13 -44 -22 -80 -9 -36 -20
-78 -25 -95 -5 -16 -18 -66 -30 -110 -11 -44 -24 -87 -27 -95 -6 -16 -9 -24
-17 -55 -3 -11 -10 -36 -15 -55 -5 -19 -20 -73 -34 -120 -14 -47 -28 -101 -33
-120 -10 -45 -9 -41 -21 -70 -13 -30 -28 -92 -25 -102 1 -5 -2 -8 -6 -8 -4 0
-8 -8 -9 -17 -1 -19 -10 -58 -13 -58 -1 0 -3 -7 -5 -15 -4 -16 -64 -226 -95
-330 -10 -36 -31 -105 -44 -155 -30 -106 -56 -194 -64 -215 -7 -20 -10 -31
-15 -55 -3 -11 -13 -47 -23 -80 -10 -33 -19 -64 -20 -70 -2 -5 -33 -111 -69
-235 -65 -224 -71 -244 -79 -277 -3 -10 -11 -37 -20 -61 -8 -23 -15 -45 -15
-47 0 -7 -19 -73 -43 -155 -11 -36 -21 -73 -24 -82 -8 -32 -13 -52 -44 -158
-17 -58 -34 -112 -37 -120 -3 -8 -7 -22 -9 -30 -2 -13 -41 -148 -59 -202 -16
-52 -26 -88 -30 -104 -2 -10 -24 -89 -50 -174 -25 -85 -48 -162 -50 -170 -2
-8 -13 -46 -24 -85 -42 -140 -52 -176 -56 -193 -2 -9 -8 -29 -14 -45 -6 -15
-13 -38 -16 -50 -2 -12 -16 -60 -30 -107 -14 -47 -27 -92 -29 -100 -2 -8 -12
-42 -22 -75 -10 -33 -18 -62 -19 -65 -1 -3 -9 -32 -19 -65 -10 -33 -22 -73
-26 -90 -5 -16 -40 -138 -79 -270 -39 -132 -73 -247 -75 -255 -2 -8 -16 -55
-31 -105 -15 -49 -30 -103 -35 -120 -4 -16 -20 -70 -35 -120 -56 -187 -63
-214 -57 -219 3 -3 0 -6 -7 -6 -7 0 -11 -6 -9 -12 3 -7 -6 -42 -19 -78 -13
-36 -24 -67 -24 -70 0 -8 -19 -84 -26 -100 -3 -8 -7 -19 -9 -25 -9 -39 -44
-155 -52 -175 -5 -14 -10 -27 -10 -30 0 -9 -23 -94 -39 -141 -8 -25 -16 -55
-18 -65 -2 -10 -4 -20 -5 -21 -2 -2 -4 -7 -5 -13 -1 -5 -3 -11 -5 -12 -1 -2
-3 -11 -5 -20 -2 -10 -12 -46 -23 -80 -11 -35 -23 -76 -27 -93 -9 -35 -7 -26
-40 -135 -15 -47 -28 -92 -30 -100 -1 -8 -10 -37 -18 -65 -39 -123 -71 -231
-74 -248 -2 -10 -12 -46 -22 -80 -11 -34 -31 -100 -45 -147 -14 -47 -43 -143
-64 -215 -22 -71 -45 -154 -53 -182 -7 -29 -17 -53 -21 -53 -5 0 -7 -4 -4 -9
3 -5 -1 -27 -9 -50 -8 -23 -14 -43 -15 -46 0 -3 -1 -7 -1 -10 -1 -3 -3 -9 -4
-15 -1 -5 -4 -12 -5 -15 -1 -3 -3 -8 -4 -12 -2 -5 -8 -28 -15 -53 -7 -25 -15
-52 -16 -60 -2 -8 -4 -16 -5 -17 -2 -2 -4 -7 -5 -13 -1 -5 -4 -12 -5 -15 -1
-3 -4 -9 -5 -15 -1 -5 -3 -11 -5 -12 -1 -2 -3 -10 -5 -18 -1 -8 -15 -55 -30
-105 -30 -103 -29 -100 -39 -140 -4 -16 -11 -39 -16 -50 -8 -18 -87 -288 -95
-325 -2 -8 -10 -34 -19 -57 -8 -24 -13 -43 -9 -43 3 0 0 -7 -7 -15 -7 -8 -10
-15 -7 -15 3 0 -1 -16 -9 -35 -8 -19 -13 -36 -12 -37 1 -2 -10 -41 -25 -88
-14 -47 -31 -105 -38 -130 -15 -55 -14 -52 -22 -70 -5 -12 -28 -91 -32 -110 0
-3 -11 -39 -24 -80 -13 -41 -25 -82 -26 -90 -2 -8 -4 -16 -5 -17 -2 -2 -4 -7
-5 -13 -1 -5 -3 -11 -5 -12 -1 -2 -3 -10 -5 -18 -11 -42 -25 -92 -45 -155 -21
-68 -35 -116 -64 -213 -8 -26 -26 -85 -41 -132 -14 -47 -28 -92 -30 -100 -2
-8 -17 -58 -33 -110 -17 -52 -40 -126 -52 -165 -13 -38 -24 -82 -27 -97 -5
-31 24 -88 44 -88 7 0 13 -4 13 -8 0 -7 69 -31 110 -39 77 -14 142 -21 275
-31 195 -13 1420 -6 1420 8 0 1 11 3 25 5 14 2 35 6 48 9 12 3 31 8 43 11 33
7 86 43 104 71 23 36 25 110 5 223 -25 140 -58 254 -101 354 -43 101 -77 154
-126 198 -54 46 -100 171 -118 314 -3 22 -9 63 -13 90 -4 28 -7 94 -7 147 0
54 -4 98 -8 98 -5 0 -6 4 -3 9 3 5 8 44 11 87 5 78 31 230 43 249 4 6 7 12 7
15 1 17 41 109 57 129 10 13 18 28 18 34 0 36 200 259 345 383 33 28 108 92
166 142 133 114 247 235 296 314 20 33 38 65 40 72 1 6 6 28 11 48 15 60 -1
139 -36 181 -8 9 -12 17 -8 17 4 0 -2 12 -13 26 -12 15 -21 32 -21 40 0 7 -3
14 -7 16 -11 4 -41 71 -66 143 -30 89 -29 224 2 285 51 98 187 184 326 206 22
3 43 8 47 10 8 5 153 5 183 0 51 -8 120 -41 167 -79 69 -55 134 -176 155 -288
7 -40 9 -298 2 -394 -4 -63 13 -241 29 -305 25 -96 66 -155 120 -169 37 -11
54 -7 96 22 28 20 71 99 80 147 2 14 5 25 6 25 4 0 22 111 25 151 1 17 4 35 7
40 12 22 -1 463 -17 584 -3 19 -7 64 -11 100 -3 36 -8 72 -11 80 -2 8 -7 31
-9 50 -6 52 -12 89 -24 150 -6 30 -13 69 -16 85 -3 17 -14 71 -25 120 -11 50
-22 98 -24 108 -2 10 -6 26 -9 35 -3 9 -7 28 -10 42 -5 24 -24 93 -67 242 -27
96 -49 178 -54 203 -2 11 -11 47 -20 80 -9 33 -18 69 -20 80 -2 11 -11 52 -20
90 -15 66 -86 409 -100 485 -3 19 -8 42 -9 50 -2 8 -6 38 -11 65 -4 28 -9 59
-12 70 -2 11 -6 29 -7 40 -2 11 -7 36 -11 55 -4 19 -8 49 -10 65 -1 17 -5 41
-8 55 -4 14 -9 45 -12 70 -3 25 -7 56 -9 70 -3 14 -7 43 -11 65 -3 22 -8 54
-11 70 -3 17 -7 50 -9 75 -2 25 -4 45 -5 45 -4 0 -14 75 -25 190 -2 17 -5 44
-8 60 -3 17 -9 62 -12 100 -4 39 -9 84 -11 100 -6 41 -15 141 -19 195 -2 25
-4 45 -5 45 -2 0 -7 56 -15 180 -4 55 -9 120 -10 145 -6 77 -17 344 -16 373 1
38 1 39 -2 160 -1 59 0 107 3 107 3 0 5 26 6 58 1 145 29 296 63 342 10 14 36
35 58 48 188 105 321 23 327 -200 2 -45 -1 -103 -6 -128 -5 -25 -11 -63 -15
-85 -3 -22 -9 -49 -13 -60 -13 -36 -2 -337 15 -426 3 -13 8 -44 11 -69 3 -25
8 -54 10 -65 3 -11 7 -40 10 -65 3 -24 7 -47 9 -50 2 -3 6 -26 10 -50 3 -25
10 -61 15 -80 5 -19 11 -46 14 -60 2 -14 10 -50 17 -80 7 -30 12 -61 12 -67 0
-7 3 -13 7 -13 3 0 6 -8 7 -17 2 -26 13 -86 19 -103 3 -8 15 -49 25 -90 30
-116 104 -371 117 -400 3 -8 7 -19 7 -25 1 -5 5 -17 8 -25 3 -8 22 -69 42
-135 21 -66 41 -129 46 -140 4 -11 23 -65 40 -120 18 -55 36 -104 41 -110 4
-5 8 -17 8 -27 0 -10 4 -26 10 -36 5 -9 28 -69 51 -132 24 -63 46 -119 51
-125 4 -5 8 -17 8 -27 0 -10 4 -18 10 -18 5 0 9 -3 9 -7 -3 -13 20 -66 62
-150 74 -144 129 -197 166 -160 23 22 39 111 39 204 -1 46 1 83 4 83 3 0 5 19
6 43 3 126 57 346 109 447 9 17 15 31 15 32 1 15 14 48 19 48 4 0 13 16 20 35
7 19 17 35 23 35 6 0 9 3 5 6 -8 8 86 129 140 180 72 68 124 89 228 90 49 1
99 -2 110 -6 12 -5 35 -10 51 -13 40 -7 177 -54 253 -88 106 -48 199 -119 271
-206 29 -36 70 -103 63 -103 -5 0 -3 -4 3 -8 25 -16 132 -285 160 -402 1 -8
17 -64 34 -125 16 -60 32 -119 34 -130 10 -61 143 -461 176 -530 5 -11 21 -49
36 -85 39 -97 93 -198 142 -265 81 -111 152 -283 222 -539 17 -65 33 -128 35
-140 5 -31 15 -76 25 -116 5 -19 11 -48 14 -65 8 -44 25 -137 30 -161 5 -25
15 -83 22 -134 3 -19 9 -60 14 -90 5 -30 12 -71 14 -90 3 -19 10 -71 16 -115
6 -44 13 -98 15 -120 3 -22 8 -60 11 -85 5 -43 10 -83 19 -180 2 -25 7 -70 10
-100 3 -30 8 -77 10 -103 2 -26 7 -75 10 -107 3 -33 8 -90 10 -127 2 -37 5
-68 5 -68 1 0 3 -34 5 -75 3 -41 7 -111 10 -155 3 -44 7 -116 9 -160 21 -484
25 -584 31 -780 2 -88 7 -225 10 -305 3 -80 8 -217 10 -305 3 -88 7 -191 8
-230 l2 -70 725 1 c664 1 819 4 890 19 14 3 34 7 46 9 38 8 89 33 105 52 36
44 42 88 23 184 -4 25 -9 50 -10 55 0 6 -3 17 -6 25 -3 8 -20 69 -38 135 -17
66 -34 127 -37 135 -3 8 -8 24 -10 35 -2 11 -8 31 -13 45 -6 14 -12 35 -15 47
-3 13 -7 31 -9 42 -2 10 -14 51 -26 92 -12 41 -23 79 -25 84 -1 6 -5 17 -8 25
-5 13 -53 182 -88 310 -16 60 -17 64 -34 120 -8 30 -18 66 -21 79 -3 14 -7 28
-10 33 -3 4 -7 16 -9 25 -2 10 -13 50 -25 88 -11 39 -22 79 -25 90 -2 11 -13
49 -24 84 -11 36 -18 67 -16 70 3 2 1 9 -4 15 -7 9 -35 100 -57 186 -6 26 -64
221 -91 310 -14 47 -27 92 -28 100 -2 18 -31 116 -52 180 -8 25 -17 59 -20 75
-3 17 -9 32 -14 33 -5 2 -7 7 -5 11 3 4 -2 30 -10 57 -9 27 -17 57 -19 67 -2
9 -6 21 -9 25 -3 5 -7 19 -10 33 -3 13 -32 119 -66 234 -62 213 -89 306 -116
405 -8 30 -19 66 -24 80 -5 14 -11 34 -13 45 -2 11 -6 27 -9 35 -7 17 -48 158
-53 180 -2 8 -15 56 -30 105 -15 50 -33 113 -40 140 -7 28 -37 129 -65 225
-28 96 -53 183 -55 193 -3 15 -19 66 -73 242 -3 11 -7 25 -7 30 -1 6 -3 13 -5
18 -1 4 -3 10 -4 15 0 4 -6 25 -13 47 -50 165 -63 213 -63 226 0 8 -4 19 -9
25 -6 5 -12 22 -15 37 -3 16 -17 69 -31 119 -15 49 -29 97 -30 106 -2 10 -4
17 -5 17 -1 0 -3 7 -5 15 -6 22 -134 468 -160 555 -47 157 -75 253 -79 275 -3
14 -17 63 -32 110 -21 69 -81 274 -99 340 -2 8 -20 71 -40 140 -20 69 -38 130
-39 135 -2 6 -6 18 -11 27 -4 10 -8 29 -9 43 0 14 -5 25 -9 25 -4 0 -7 6 -6
13 1 6 0 19 -4 27 -8 23 -47 153 -51 175 -2 11 -11 40 -19 65 -14 40 -33 110
-42 150 -2 8 -20 69 -40 135 -20 66 -38 127 -40 135 -2 8 -11 40 -20 70 -9 30
-17 62 -19 70 -2 8 -11 38 -19 65 -9 28 -23 77 -32 110 -10 33 -20 67 -23 75
-3 8 -7 23 -9 33 -1 10 -12 46 -22 80 -31 97 -64 211 -66 222 -1 6 -4 17 -7
25 -4 8 -10 29 -14 45 -8 33 -7 30 -28 100 -12 41 -74 254 -91 315 -3 8 -13
44 -22 80 -10 36 -21 70 -25 75 -3 6 -11 36 -18 68 -6 33 -18 75 -27 94 -8 19
-16 47 -18 62 -2 14 -13 54 -24 87 -12 34 -22 70 -24 80 -1 11 -6 24 -9 30 -4
6 -9 21 -12 35 -4 25 -30 115 -66 234 -12 39 -23 77 -25 85 -4 18 -82 293 -96
335 -5 17 -22 77 -39 135 -17 58 -34 119 -39 135 -5 17 -24 82 -41 145 -18 63
-35 122 -38 130 -3 8 -7 24 -9 35 -2 11 -7 23 -12 28 -5 5 -60 10 -122 12
-212 7 -430 15 -537 20 -59 3 -179 8 -267 11 -88 3 -205 7 -260 10 -114 5
-953 13 -957 9z"/>
<path d="M7401 1696 c-13 -15 -16 -109 -6 -161 3 -16 13 -59 22 -95 8 -36 17
-74 19 -85 2 -11 13 -60 24 -110 30 -129 40 -183 55 -300 7 -49 10 -59 25 -81
23 -32 80 -57 137 -60 55 -2 77 12 100 67 18 43 4 237 -20 267 -5 7 -7 15 -4
19 4 3 3 11 -1 17 -5 6 -19 43 -32 81 -12 39 -38 103 -56 143 -18 40 -33 75
-33 79 1 3 -4 9 -9 12 -5 3 -19 24 -31 46 -34 65 -44 77 -93 127 -47 49 -76
59 -97 34z"/>
</g>
</svg>
